 
http://leetleech.org/images/07681576662009180196.jpg
 
http://leetleech.org/images/32295393406446604205.jpg

Torchwood S04E02 HDTV XviD-LOL [ICM369]

Miracle Day – Rendition

Original Airdate: July 21st, 2011 (July 15th, 2011 In USA)

The second episode of the new season of Torchwood slows down a little,
but still hands the viewer a lot to digest. 

Rex, who at the end of episode one had announced that he was extraditing 
the team to America, is being railroaded by a colleague and former lover,
Lyn (played with effective evilness by Dichen Lachman), who is taking over 
the arrest. 

Rhys and Anwen are sent back home as Jack and Gwen are loaded on a plane for 
the states most of their time is spent on the flight, but even on a plane, a 
lot can happen.

Esther is suddenly making unwanted waves as she is trying to get more involved 
with the Torchwood investigation. 

Her inquiries and interest are catching the eye of someone that doesn’t want 
Torchwood to come out of this alive. 

However, the reasons for that are still a mystery. » 
__________

Format                           : AVI
Format/Info                      : Audio Video Interleave
File size                        : 550 MiB
Duration                         : 53mn 43s
Overall bit rate                 : 1 432 Kbps
Writing application              : Lavf53.2.0

Video
ID                               : 0
Format                           : MPEG-4 Visual
Format profile                   : Advanced Simple@L5
Format settings, BVOP            : 2
Format settings, QPel            : No
Format settings, GMC             : No warppoints
Format settings, Matrix          : Default (H.263)
Codec ID                         : XVID
Codec ID/Hint                    : XviD
Duration                         : 53mn 43s
Bit rate                         : 1 294 Kbps
Width                            : 624 pixels
Height                           : 352 pixels
Display aspect ratio             : 16:9
Frame rate                       : 23.976 fps
Color space                      : YUV
Chroma subsampling               : 4:2:0
Bit depth                        : 8 bits
Scan type                        : Progressive
Compression mode                 : Lossy
Bits/(Pixel*Frame)               : 0.246
Stream size                      : 497 MiB (90%)
Writing library                  : XviD 63

Audio
ID                               : 1
Format                           : MPEG Audio
Format version                   : Version 1
Format profile                   : Layer 3
Mode                             : Joint stereo
Codec ID                         : 55
Codec ID/Hint                    : MP3
Duration                         : 53mn 43s
Bit rate mode                    : Variable
Bit rate                         : 125 Kbps
Channel(s)                       : 2 channels
Sampling rate                    : 48.0 KHz
Compression mode                 : Lossy
Stream size                      : 47.9 MiB (9%)
Alignment                        : Aligned on interleaves
Interleave, duration             : 24 ms (0.58 video frame)
__________

